<svg width="900" height="700" viewBox="0 0 900 700" fill="none" xmlns="http://www.w3.org/2000/svg">
<g clip-path="url(#clip0)">
<path opacity="0.1" d="M881.881 186.061C872.978 165.398 860.947 146.228 846.211 129.225L351.324 124.35L758.783 67.1206C732.461 56.638 704.438 51.0779 676.107 50.7168C637.13 19.5614 589.137 1.8205 539.266 0.132976C489.396 -1.55455 440.313 12.9015 399.318 41.3508C366.557 24.509 330.24 15.7568 293.403 15.826C183.444 15.826 91.8137 91.98 71.2609 192.976L881.881 186.061Z" fill="#19D1B5"/>
<path d="M250.941 699.295C360.68 699.295 449.641 684.712 449.641 666.724C449.641 648.735 360.68 634.153 250.941 634.153C141.201 634.153 52.2399 648.735 52.2399 666.724C52.2399 684.712 141.201 699.295 250.941 699.295Z" fill="#565987"/>
<path d="M456.443 456.906C447.505 459.147 438.332 454.788 438.332 454.788C438.332 454.788 430.506 445.728 423.906 444.503C417.306 443.278 414.75 454 410.829 456.758C408.115 458.692 388.543 457.309 376.691 456.276L374.651 456.092C374.45 455.944 374.249 455.786 374.03 455.646C374.03 455.646 362.651 452.145 360.278 449.046C357.906 445.947 342.054 440.214 337.135 440.547C332.215 440.879 317.676 441.667 317.676 441.667C317.676 441.667 311.978 435.181 309.404 435.855C306.831 436.529 297.885 435.802 297.885 435.802C297.885 435.802 295.425 429.482 292.965 420.423C291.819 416.195 288.002 413.227 284.265 411.275C287.626 399.896 281.639 367.439 263.046 361.093C258.994 359.709 256.919 355.114 253.47 352.593C250.38 350.343 245.321 345.039 247.798 335.454C251.299 322.035 259.983 300.905 259.983 300.905L266.451 287.985C265.848 288.9 265.162 289.758 264.403 290.549C265.279 289.429 266.154 288.326 266.907 287.398C273.362 290.659 280.403 292.599 287.617 293.105C294.917 296.055 302.209 298.655 305.045 298.559C311.531 298.331 328.075 306.612 328.075 306.612C328.075 306.612 367.876 317.991 376.148 318.91C384.42 319.829 388.447 309.071 388.447 309.071C388.447 309.071 392.745 287.862 385.112 282.242C377.479 276.623 373.041 302.375 373.041 302.375L320.967 283.608L317.755 281.919C320.249 279.279 322.229 276.198 323.593 272.833C324.399 270.828 325.134 268.535 327.051 267.537C327.567 267.281 328.124 267.118 328.696 267.055C329.172 267.025 329.648 267.025 330.123 267.055C339.157 267.607 346.921 274.715 355.972 274.75C356.304 274.75 356.637 274.75 356.97 274.75C358.695 274.745 360.38 274.227 361.81 273.262C362.618 272.604 363.282 271.788 363.76 270.863C364.239 269.939 364.523 268.926 364.594 267.887C364.462 268.168 364.316 268.443 364.156 268.71C364.392 267.422 364.392 266.102 364.156 264.815C363.596 261.742 361.994 258.985 360.559 256.21C360.153 255.563 359.923 254.82 359.893 254.057C359.934 253.658 360.055 253.272 360.249 252.921C360.443 252.571 360.706 252.263 361.023 252.017C361.036 252.1 361.053 252.182 361.075 252.262C361.757 251.62 362.516 251.065 363.333 250.608C365.546 249.157 367.436 247.267 368.888 245.055C370.34 242.843 371.321 240.356 371.772 237.749C371.553 238.397 371.29 239.036 371.01 239.666C372.356 235.223 372.03 230.44 370.091 226.221C369.589 225.02 368.787 223.969 367.763 223.166C364.498 220.873 360.112 223.315 356.129 223.578C352.628 223.805 349.232 222.238 346.072 220.654C340.68 217.949 335.314 215.026 330.824 211.025C325.72 206.447 321.93 200.609 317.326 195.541C312.722 190.473 306.813 185.956 299.959 185.448C287.503 184.485 275.756 196.827 263.913 192.801C258.136 190.849 254.337 185.509 250.319 180.923C246.301 176.336 240.778 171.933 234.756 172.922C230.572 173.622 226.948 176.87 222.711 176.747C220.496 176.677 218.439 175.688 216.339 174.997C211.253 173.29 204.285 174.121 202.473 179.181C202.117 180.211 201.992 181.307 202.105 182.392C202.219 183.476 202.568 184.522 203.13 185.457C202.862 185.833 202.622 186.228 202.412 186.639C201.977 187.44 201.826 188.366 201.983 189.265C198.383 192.496 195.716 196.633 194.259 201.246C192.802 205.859 192.609 210.778 193.699 215.491C194.79 220.204 197.124 224.538 200.46 228.042C203.795 231.546 208.009 234.091 212.662 235.412C212.829 236.051 212.995 236.69 213.152 237.338C214.851 244.489 215.735 252.542 213.222 257.969C213.065 258.302 212.899 258.626 212.715 258.941L212.496 259.037L212.592 259.134L212.496 259.037L212.181 258.714L210.273 256.718C210.168 254.634 208.995 249.05 200.837 238.686C190.096 225.039 188.083 202.456 188.083 202.456C188.083 202.456 185.404 190.831 188.083 187.479C190.761 184.126 195.243 147.214 195.243 147.214L202.648 126.433C202.648 126.433 238.651 89.7567 223.656 85.2925C213.476 82.2551 201.335 97.906 194.595 108.252C191.285 113.333 189.144 119.085 188.328 125.094L167.976 180.774C167.976 180.774 165.963 187.488 167.976 199.112C169.99 210.737 174.463 231.316 174.463 231.316L185.842 260.158C185.842 260.158 190.035 272.614 189.667 278.023C189.168 278.347 187.418 281.814 185.903 284.965L184.792 286.715L184.713 287.424C183.969 289.009 183.452 290.147 183.452 290.147C183.452 290.147 177.115 308.853 182.411 320.328C187.706 331.804 187.917 337.126 187.917 337.126L191.864 354.125L193.51 369.006L207.708 404.115L220.785 422.786C220.785 422.786 219.56 436.537 216.873 438.437C214.185 440.336 215.42 450.175 215.42 450.175L213.739 475.998C213.739 475.998 208.487 483.718 208.154 496.235C207.822 508.752 205.913 512.341 205.913 512.341C205.913 512.341 205.038 522.845 207.48 527.66C209.922 532.474 203.568 537.498 203.568 537.498L209.021 556.222L206.894 579.926C206.894 579.926 207.883 580.197 209.52 580.609L209.187 582.307L200.294 627.211C200.294 627.211 195.488 639.518 195.269 642.416L179.723 670.488C179.723 670.488 166.751 683.346 172.905 684.572C179.058 685.797 196.95 674.733 196.95 674.733C196.95 674.733 211.708 658.855 217.52 657.41C223.333 655.966 229.775 651.808 227.919 645.777C226.064 639.746 221.792 630.573 225.906 620.839C228.532 614.712 234.117 598.08 237.951 586.473C238.161 585.834 238.362 585.222 238.563 584.626C239.577 584.535 240.58 584.345 241.557 584.057C250.949 581.151 255.869 583.182 255.869 583.182L272.64 515.318L276.325 481.267L299.81 500.857C304.457 504.732 310.226 507.012 316.267 507.361C325.519 507.903 339.953 509.243 350.405 512.473L354.781 494.248C354.781 494.248 367.299 494.703 369.986 490.449C371.08 488.699 372.157 487.211 373.041 486.073L375.072 485.757L430.471 477.188C440.757 477.188 454.849 470.247 454.849 470.247L463.463 468.575C463.463 468.575 476.313 466.001 477.468 463.874C478.624 461.747 465.397 454.683 456.443 456.906Z" fill="url(#paint0_linear)"/>
<path d="M205.056 183.566C206.806 178.629 213.651 177.798 218.632 179.47C220.68 180.152 222.702 181.124 224.864 181.22C229.013 181.343 232.559 178.157 236.655 177.483C242.546 176.502 247.947 180.809 251.877 185.299C255.807 189.79 259.536 195.016 265.191 196.933C276.772 200.836 288.274 188.792 300.458 189.729C307.146 190.245 312.923 194.648 317.431 199.611C321.939 204.574 325.65 210.281 330.64 214.763C335.016 218.702 340.268 221.564 345.564 224.217C348.654 225.766 351.954 227.298 355.403 227.07C359.307 226.816 363.596 224.444 366.782 226.668C367.785 227.454 368.569 228.485 369.058 229.661C372.98 237.819 369.82 248.682 362.143 253.479C360.804 254.311 359.176 255.23 359.097 256.832C359.122 257.58 359.345 258.308 359.744 258.941C361.145 261.655 362.721 264.359 363.246 267.362C363.771 270.364 363.062 273.822 360.62 275.642C359.025 276.703 357.131 277.222 355.219 277.122C346.361 277.078 338.763 270.119 329.922 269.585C328.791 269.456 327.645 269.631 326.604 270.093C324.731 271.064 323.978 273.314 323.217 275.275C319.12 285.507 308.949 292.624 298.095 294.576C287.241 296.528 275.905 293.779 266.189 288.562C265.479 288.223 264.826 287.774 264.254 287.232C263.443 286.247 262.871 285.087 262.582 283.844C259.606 274.435 255.58 264.587 247.334 259.151C241.986 255.65 234.729 253.68 232.305 247.772C230.782 244.034 231.736 239.789 231.351 235.762C230.971 232.31 229.626 229.035 227.469 226.313C225.312 223.591 222.431 221.532 219.157 220.374C217.722 219.893 216.146 219.551 215.096 218.457C214.243 217.383 213.698 216.097 213.52 214.737C212.216 208.811 211.349 202.552 209.529 196.766C208.137 192.232 203.191 188.757 205.056 183.566Z" fill="#663D5B"/>
<g opacity="0.1">
<path opacity="0.1" d="M361.644 272.92C360.044 273.966 358.152 274.472 356.243 274.364C347.394 274.364 339.796 267.362 330.955 266.837C329.824 266.704 328.679 266.876 327.637 267.336C325.755 268.307 325.011 270.557 324.25 272.518C320.153 282.759 309.973 289.875 299.119 291.827C288.265 293.779 276.929 291.031 267.222 285.814C266.512 285.473 265.859 285.024 265.287 284.483C264.478 283.497 263.906 282.338 263.615 281.096C260.639 271.677 256.613 261.838 248.367 256.394C243.01 252.849 235.754 250.932 233.338 245.015C231.806 241.268 232.76 237.023 232.383 233.005C232.006 229.551 230.66 226.274 228.501 223.552C226.342 220.829 223.458 218.772 220.181 217.617C218.746 217.135 217.17 216.785 216.12 215.7C215.266 214.624 214.724 213.334 214.553 211.971C213.24 206.053 212.382 199.786 210.561 194.009C209.336 190.14 205.476 187.006 205.668 182.875C205.555 183.093 205.456 183.318 205.371 183.549C203.498 188.739 208.452 192.214 209.861 196.679C211.682 202.456 212.54 208.723 213.853 214.64C214.024 216.003 214.566 217.293 215.42 218.369C216.47 219.455 218.046 219.805 219.481 220.286C222.759 221.442 225.644 223.501 227.803 226.225C229.962 228.949 231.307 232.228 231.683 235.683C232.06 239.701 231.106 243.947 232.637 247.693C235.053 253.637 242.31 255.571 247.667 259.072C255.895 264.526 259.921 274.356 262.915 283.774C263.205 285.017 263.777 286.176 264.587 287.162C265.159 287.703 265.812 288.152 266.521 288.492C276.229 293.744 287.529 296.449 298.419 294.506C309.308 292.563 319.427 285.437 323.549 275.196C324.337 273.235 325.064 270.986 326.937 270.014C327.979 269.555 329.124 269.383 330.255 269.515C339.095 270.049 346.693 277.008 355.543 277.043C357.454 277.143 359.347 276.628 360.944 275.572C361.735 274.931 362.386 274.134 362.855 273.23C363.325 272.327 363.604 271.336 363.675 270.32C363.233 271.347 362.533 272.243 361.644 272.92V272.92Z" fill="black"/>
<path opacity="0.1" d="M363.167 250.73C361.828 251.606 360.191 252.481 360.112 254.083C360.104 254.405 360.155 254.725 360.261 255.028C360.926 254.399 361.667 253.855 362.467 253.409C364.632 251.991 366.482 250.142 367.902 247.978C369.322 245.814 370.282 243.381 370.721 240.83C369.427 244.906 366.757 248.406 363.167 250.73V250.73Z" fill="black"/>
</g>
<path d="M227.963 615.744C223.91 625.268 228.077 634.231 229.933 640.149C231.788 646.066 225.451 650.101 219.761 651.528C214.072 652.955 199.629 668.483 199.629 668.483C199.629 668.483 182.122 679.311 176.1 678.112C170.077 676.913 182.77 664.325 182.77 664.325L197.983 636.857C198.202 634.021 202.902 621.977 202.902 621.977L211.603 578.035L212.759 572.197L243.605 570.332C243.605 570.332 241.986 575.339 239.754 582.105C235.999 593.485 230.502 609.801 227.963 615.744Z" fill="#CC818C"/>
<path d="M474.151 462.15C473.056 464.233 460.478 466.745 460.478 466.745L452.048 468.382C452.048 468.382 438.262 475.175 428.196 475.175L373.977 483.569L366.703 484.698V453.939C366.703 453.939 370.362 454.324 375.544 454.814C387.125 455.83 406.286 457.178 408.938 455.287C412.772 452.556 415.284 442.052 421.736 443.26C428.187 444.468 435.855 453.326 435.855 453.326C435.855 453.326 444.827 457.589 453.58 455.401C462.334 453.213 475.245 460.066 474.151 462.15Z" fill="#CC818C"/>
<path opacity="0.1" d="M375.894 481.188C375.894 481.188 375.115 482.064 373.977 483.56L366.703 484.69V453.939C366.703 453.939 370.362 454.324 375.544 454.814C384.245 461.686 375.894 481.188 375.894 481.188Z" fill="black"/>
<path d="M271.187 474.08L300.309 498.38C304.858 502.171 310.504 504.402 316.415 504.743C325.466 505.277 339.594 506.582 349.853 509.75L354.125 491.911C354.125 491.911 366.38 492.349 369.006 488.191C370.548 485.736 372.265 483.396 374.144 481.188C374.144 481.188 383.011 460.513 372.945 454.167C372.945 454.167 361.784 450.77 359.482 447.707C357.18 444.643 341.651 439.067 336.837 439.391C332.023 439.715 317.799 440.485 317.799 440.485C317.799 440.485 312.214 434.139 309.702 434.796C307.189 435.452 298.427 434.796 298.427 434.796C298.427 434.796 296.02 428.607 293.613 419.74C291.206 410.873 276.877 407.704 276.877 407.704L271.187 474.08Z" fill="#14BBE4"/>
<path opacity="0.1" d="M271.187 474.08L300.309 498.38C304.858 502.171 310.504 504.402 316.415 504.743C325.466 505.277 339.594 506.582 349.853 509.75L354.125 491.911C354.125 491.911 366.38 492.349 369.006 488.191C370.548 485.736 372.265 483.396 374.144 481.188C374.144 481.188 383.011 460.513 372.945 454.167C372.945 454.167 361.784 450.77 359.482 447.707C357.18 444.643 341.651 439.067 336.837 439.391C332.023 439.715 317.799 440.485 317.799 440.485C317.799 440.485 312.214 434.139 309.702 434.796C307.189 435.452 298.427 434.796 298.427 434.796C298.427 434.796 296.02 428.607 293.613 419.74C291.206 410.873 276.877 407.704 276.877 407.704L271.187 474.08Z" fill="#14BBE4"/>
<path d="M258.162 256.228L254.941 256.832H254.74L254.267 256.919L248.752 257.943L247.054 259.956L246.984 260.027L241.531 266.486L236.935 270.994L236.891 271.047L233.005 274.828L226.431 281.367L225.328 284.089L222.93 290.12L222.308 291.652L215.743 298.655L211.551 307.627L201.747 313.317L191.199 307.846L186.385 300.843L187.479 290.812L187.698 288.807L190.91 283.652L193.825 278.96L199.515 270.863L210.456 263.423L212.417 262.906L214.614 262.329C214.782 262.089 214.937 261.841 215.078 261.585C215.263 261.277 215.43 260.958 215.577 260.63C218.037 255.326 217.17 247.439 215.507 240.445C214.232 235.213 212.543 230.091 210.456 225.127L239.342 220.969C239.342 220.969 239.062 226.571 239.062 235.307C239.062 237.495 239.062 239.868 239.124 242.406C239.264 250.284 246.581 253.698 252.105 255.151C253.527 255.53 254.971 255.822 256.429 256.026C257.497 256.193 258.162 256.228 258.162 256.228Z" fill="#CC818C"/>
<path d="M212.645 260.359C212.645 260.359 213.958 255.107 203.454 241.758C192.95 228.409 190.98 206.307 190.98 206.307C190.98 206.307 188.354 194.928 190.98 191.645C193.606 188.363 197.983 152.255 197.983 152.255L205.204 131.904C205.204 131.904 240.437 96.0153 225.775 91.6386C215.813 88.6625 203.891 103.99 197.335 114.108C194.097 119.081 192.004 124.711 191.208 130.591L171.285 185.08C171.285 185.08 169.316 191.645 171.285 203.025C173.255 214.404 177.631 234.537 177.631 234.537L188.792 262.793C188.792 262.793 194.665 280.387 191.619 282.531L198.421 272.474L212.645 260.359Z" fill="#CC818C"/>
<path d="M387.055 310.717C387.055 310.717 383.116 321.221 375.019 320.346C366.922 319.47 327.97 308.31 327.97 308.31C327.97 308.31 311.776 300.213 305.43 300.432C299.084 300.651 269.979 287.083 269.979 287.083C269.979 287.083 267.931 289.779 265.646 292.615C263.16 295.723 260.394 299.005 259.694 299.119C258.381 299.338 238.029 302.183 238.029 302.183L224.243 295.836L222.93 290.12L222.308 287.494L225.363 284.089L229.381 279.616L236.918 271.021L236.961 270.968L247.019 260.035L247.089 259.965L253.532 257.339L254.775 256.832H254.976C255.746 256.7 258.705 256.429 262.67 258.67C265.431 260.233 268.498 261.183 271.66 261.453C277.953 261.902 283.913 264.455 288.58 268.701L320.967 285.744L371.955 304.126C371.955 304.126 376.332 278.96 383.772 284.431C391.213 289.902 387.055 310.717 387.055 310.717Z" fill="#CC818C"/>
<path opacity="0.1" d="M265.646 292.615C263.16 295.723 260.394 299.005 259.694 299.119C258.381 299.338 238.029 302.183 238.029 302.183L224.243 295.836L222.93 290.12L222.308 291.652L215.743 298.655L211.551 307.627L201.747 313.317L191.199 307.846L186.385 300.843L187.479 290.812C188.03 289.622 189.536 286.383 190.91 283.652C191.56 282.147 192.376 280.72 193.344 279.398C194.219 278.82 195.138 272.614 195.138 272.614C199.112 261.156 212.426 259.396 212.426 259.396L214.553 261.392L215.481 262.355C215.104 262.294 215.551 261.48 215.069 261.611C214.299 261.83 213.958 262.994 212.969 263.633C207.585 267.134 199.173 275.301 195.847 279.179C195.042 280.115 194.21 281.035 193.361 281.927C188.556 287.013 189.44 293.753 189.44 293.753C188.24 299.005 198.849 302.944 198.849 302.944C201.808 298.025 221.827 284.457 221.827 284.457L235.307 269.358C239.439 262.162 247.562 257.409 252.096 255.186C254.101 254.206 255.414 253.715 255.414 253.715L260.455 255.869C259.124 255.512 257.716 255.573 256.42 256.044C255.676 256.274 254.953 256.567 254.258 256.919C253.995 257.05 253.733 257.19 253.488 257.339C252.109 258.14 250.813 259.075 249.619 260.132L238.292 272.5C229.635 281.945 236.156 297.219 248.962 297.438H249.076C256.902 299.241 262.512 295.618 265.646 292.615Z" fill="black"/>
<path opacity="0.1" d="M243.605 570.358C243.605 570.358 241.986 575.365 239.754 582.132C231.193 582.771 217.056 579.462 211.603 578.061L212.759 572.223L243.605 570.358Z" fill="black"/>
<path d="M215.49 262.355L212.688 259.484C212.688 259.484 202.578 260.867 196.302 271.668C196.302 271.668 193.37 279.765 192.468 280.343C191.567 280.921 186.385 292.239 186.385 292.239C186.385 292.239 180.187 310.542 185.361 321.781C190.534 333.021 190.761 338.194 190.761 338.194L194.63 354.825L196.232 369.408L210.133 403.765L222.93 421.998C222.93 421.998 221.731 435.452 219.105 437.317C216.479 439.181 217.678 448.801 217.678 448.801L216.041 474.081C216.041 474.081 210.894 481.626 210.57 493.881C210.246 506.135 208.382 509.637 208.382 509.637C208.382 509.637 207.507 519.922 209.914 524.631C212.321 529.34 206.08 534.26 206.08 534.26L211.446 552.528L209.362 575.724C209.362 575.724 234.09 582.622 243.281 579.777C252.472 576.932 257.287 578.902 257.287 578.902L273.699 512.455L279.389 460.268C279.389 460.268 279.722 423.285 284.641 412.011C288.86 402.382 283.328 368.078 264.324 361.6C260.359 360.252 258.346 355.753 254.958 353.285C251.93 351.087 246.984 345.897 249.409 336.513C252.805 323.383 261.34 302.708 261.34 302.708L267.659 290.12C267.659 290.12 260.788 301.237 248.21 298.392H248.096C235.29 298.165 228.768 282.89 237.425 273.454L248.752 261.077C248.752 261.077 254.993 255.326 259.589 256.779L254.556 254.626C254.556 254.626 240.384 259.878 234.423 270.268L220.943 285.367C220.943 285.367 200.942 298.874 197.983 303.828C197.983 303.828 187.374 299.889 188.573 294.637C188.573 294.637 187.698 287.888 192.495 282.803C193.37 281.927 194.175 281 194.98 280.063C199.296 275.021 211.227 261.646 215.49 262.355Z" fill="#14BBE4"/>
<path opacity="0.1" d="M217.135 352.514C217.135 352.514 213.958 375.606 216.365 380.306L217.135 352.514Z" fill="black"/>
<path opacity="0.1" d="M219.21 361.486L222.606 374.73C222.606 374.73 223.805 366.633 219.21 361.486Z" fill="black"/>
<path opacity="0.1" d="M199.077 358.396C199.077 358.396 205.861 392.097 213.301 402.277Z" fill="black"/>
<path opacity="0.1" d="M246.897 399.021C246.897 399.021 235.298 409.962 230.808 409.166C230.808 409.166 248.647 409.936 254.223 400.526C254.223 400.553 250.617 397.927 246.897 399.021Z" fill="black"/>
<path opacity="0.1" d="M262.976 398.145C262.976 398.145 248.096 408.973 245.146 409.962C245.146 409.962 261.226 405.367 262.976 398.145Z" fill="black"/>
<path opacity="0.1" d="M212.645 317.72C212.645 317.72 205.204 327.243 201.484 326.149C201.484 326.149 210.57 326.473 212.645 317.72Z" fill="black"/>
<path opacity="0.1" d="M221.074 329.974C221.074 329.974 237.268 307.986 244.927 308.861C244.927 308.861 226.545 324.836 221.074 329.974Z" fill="black"/>
<path opacity="0.1" d="M243.5 321.974C243.5 321.974 233.215 327.13 234.309 328.635C235.403 330.141 243.5 321.974 243.5 321.974Z" fill="black"/>
<path opacity="0.1" d="M250.941 490.817C250.941 490.817 216.584 510.845 213.415 511.825C213.415 511.825 219.324 516.315 224.899 514.127C230.475 511.939 250.941 490.817 250.941 490.817Z" fill="black"/>
<path opacity="0.1" d="M222.168 532.509C222.168 532.509 208.382 531.082 208.925 535.573C209.467 540.063 222.168 532.509 222.168 532.509Z" fill="black"/>
<path opacity="0.1" d="M239.342 220.969C239.342 220.969 239.062 226.571 239.062 235.307C235.821 237.963 231.996 239.813 227.902 240.705C223.807 241.596 219.559 241.505 215.507 240.437C214.232 235.205 212.543 230.082 210.456 225.118L239.342 220.969Z" fill="black"/>
<path d="M222.273 239.605C236.897 239.605 248.752 227.75 248.752 213.126C248.752 198.502 236.897 186.647 222.273 186.647C207.65 186.647 195.795 198.502 195.795 213.126C195.795 227.75 207.65 239.605 222.273 239.605Z" fill="#CC818C"/>
<path opacity="0.1" d="M229.215 229.285C229.959 240.113 232.235 252.499 241.636 257.943C248.428 261.873 256.989 260.841 264.508 258.6C272.027 256.359 279.389 253.015 287.214 252.639C293.228 252.35 299.171 253.829 305.167 254.206C311.164 254.582 317.728 253.645 322.009 249.426C328.136 243.421 327.016 232.506 321.212 226.195C315.409 219.884 306.332 217.59 297.736 217.827C287.232 218.116 275.502 221.328 267.196 214.956C261.62 210.666 259.51 203.226 254.818 197.983C246.984 189.23 212.338 176.59 205.003 190.858C201.563 197.536 217.196 202.307 220.82 207.139C226.545 214.763 228.532 219.289 229.215 229.285Z" fill="black"/>
<path d="M230.029 228.348C230.782 239.185 233.049 251.571 242.45 257.007C249.242 260.937 257.803 259.904 265.322 257.672C272.841 255.44 280.203 252.087 288.037 251.711C294.042 251.422 299.986 252.893 305.99 253.278C311.995 253.663 318.543 252.717 322.823 248.498C328.95 242.485 327.83 231.578 322.026 225.267C316.223 218.956 307.146 216.663 298.559 216.899C288.055 217.179 276.316 220.4 268.01 214.019C262.434 209.73 260.324 202.298 255.632 197.046C247.798 188.293 213.152 175.662 205.817 189.93C202.377 196.6 218.011 201.37 221.643 206.211C227.359 213.826 229.346 218.343 230.029 228.348Z" fill="#663D5B"/>
<path opacity="0.1" d="M198.184 302.935C198.59 299.481 199.729 296.153 201.524 293.173C203.318 290.193 205.728 287.631 208.592 285.656" fill="black"/>
<path opacity="0.1" d="M297.465 440.048C297.383 440.906 297.174 441.746 296.843 442.542C295.696 445.979 294.316 449.334 292.711 452.582C295.049 452.381 296.974 450.543 297.963 448.424C298.828 446.245 299.305 443.932 299.373 441.588C299.459 440.856 299.479 440.118 299.434 439.382C299.373 438.7 298.935 436.091 297.806 436.555C296.896 436.94 297.482 439.356 297.465 440.048Z" fill="black"/>
<path opacity="0.1" d="M324.399 245.759C320.109 249.978 313.562 250.923 307.557 250.538C301.552 250.153 295.583 248.682 289.604 248.98C281.726 249.356 274.426 252.7 266.898 254.941C259.37 257.182 250.818 258.215 244.017 254.284C234.624 248.84 232.349 236.454 231.604 225.626C230.922 215.63 228.926 211.104 223.21 203.48C219.752 198.867 205.397 194.315 207.043 188.118C206.567 188.677 206.156 189.287 205.817 189.939C202.377 196.609 218.011 201.379 221.643 206.22C227.359 213.835 229.346 218.369 230.029 228.357C230.782 239.194 233.049 251.58 242.45 257.015C249.242 260.946 257.803 259.913 265.322 257.681C272.841 255.449 280.203 252.096 288.037 251.72C294.042 251.431 299.986 252.901 305.99 253.286C311.995 253.672 318.543 252.726 322.823 248.507C324.039 247.301 325.005 245.867 325.668 244.288C325.283 244.81 324.859 245.302 324.399 245.759V245.759Z" fill="black"/>
<path d="M196.285 325.353L193.072 332.355L203.287 330.316L196.285 325.353Z" fill="#CC818C"/>
<path opacity="0.1" d="M196.285 325.353L193.641 332.355H193.072L196.285 325.353Z" fill="black"/>
<path opacity="0.1" d="M449.064 643.195C468.884 643.195 484.952 640.989 484.952 638.267C484.952 635.545 468.884 633.339 449.064 633.339C429.243 633.339 413.175 635.545 413.175 638.267C413.175 640.989 429.243 643.195 449.064 643.195Z" fill="#19D1B5"/>
<path opacity="0.1" d="M586.535 657.13C606.355 657.13 622.423 654.924 622.423 652.202C622.423 649.48 606.355 647.274 586.535 647.274C566.714 647.274 550.646 649.48 550.646 652.202C550.646 654.924 566.714 657.13 586.535 657.13Z" fill="#19D1B5"/>
<path opacity="0.1" d="M748.463 638.267C768.283 638.267 784.351 636.06 784.351 633.339C784.351 630.617 768.283 628.411 748.463 628.411C728.642 628.411 712.574 630.617 712.574 633.339C712.574 636.06 728.642 638.267 748.463 638.267Z" fill="#19D1B5"/>
<path opacity="0.1" d="M531.511 695.391C545.598 695.391 557.018 693.823 557.018 691.89C557.018 689.956 545.598 688.388 531.511 688.388C517.424 688.388 506.004 689.956 506.004 691.89C506.004 693.823 517.424 695.391 531.511 695.391Z" fill="#19D1B5"/>
<path opacity="0.1" d="M674.191 691.89C688.278 691.89 699.698 690.322 699.698 688.388C699.698 686.455 688.278 684.887 674.191 684.887C660.103 684.887 648.683 686.455 648.683 688.388C648.683 690.322 660.103 691.89 674.191 691.89Z" fill="#19D1B5"/>
<path opacity="0.1" d="M750.756 582.788C751.177 583.393 751.507 584.057 751.736 584.758C760.166 594.649 764.647 603.884 756.551 604.12C749.014 604.33 739.972 617.819 737.801 621.224C737.872 621.485 737.957 621.742 738.055 621.994C738.055 621.994 748.664 604.365 757.312 604.12C765.96 603.875 760.288 593.388 750.756 582.788Z" fill="black"/>
<path d="M759.728 590.797C759.728 593.012 759.483 594.806 759.177 594.806C758.87 594.806 758.634 592.986 758.634 590.797C758.634 588.609 758.94 589.633 759.247 589.633C759.553 589.633 759.728 588.609 759.728 590.797Z" fill="#FFD037"/>
<path d="M762.8 593.441C760.857 594.5 759.159 595.139 759.019 594.877C758.879 594.614 760.323 593.528 762.267 592.469C764.21 591.41 763.448 592.18 763.588 592.469C763.728 592.758 764.761 592.382 762.8 593.441Z" fill="#FFD037"/>
<path d="M716.452 590.797C716.452 593.012 716.705 594.807 717.012 594.807C717.318 594.807 717.563 593.012 717.563 590.797C717.563 588.583 717.257 589.633 716.951 589.633C716.644 589.633 716.452 588.609 716.452 590.797Z" fill="#FFD037"/>
<path d="M713.388 593.441C715.331 594.5 717.021 595.139 717.169 594.877C717.318 594.614 715.865 593.528 713.922 592.469C711.979 591.41 712.74 592.18 712.591 592.469C712.443 592.758 711.445 592.382 713.388 593.441Z" fill="#FFD037"/>
</g>
<defs>
<linearGradient id="paint0_linear" x1="322.315" y1="684.642" x2="322.315" y2="84.8811" gradientUnits="userSpaceOnUse">
<stop stop-color="#808080" stop-opacity="0.25"/>
<stop offset="0.54" stop-color="#808080" stop-opacity="0.12"/>
<stop offset="1" stop-color="#808080" stop-opacity="0.1"/>
</linearGradient>
<clipPath id="clip0">
<rect width="899.274" height="699.295" fill="white"/>
</clipPath>
</defs>
</svg>
