<svg width="638" height="687" viewBox="0 0 638 687" fill="none" xmlns="http://www.w3.org/2000/svg">
<g clip-path="url(#clip0)">
<path d="M164.5 402L634.5 0L634.445 686L164.5 402Z" fill="#F2F2F2"/>
<path d="M246 56.386H0V382.386H246V56.386Z" fill="#3F3D56"/>
<path opacity="0.1" d="M246 56.386H0V382.386H246V56.386Z" fill="black"/>
<path opacity="0.3" d="M208 118.386H38V124.386H208V118.386Z" fill="#19D1B5"/>
<path opacity="0.3" d="M208 146.386H38V152.386H208V146.386Z" fill="#19D1B5"/>
<path opacity="0.3" d="M208 174.386H38V180.386H208V174.386Z" fill="#19D1B5"/>
<path opacity="0.3" d="M208 202.386H38V208.386H208V202.386Z" fill="#19D1B5"/>
<path opacity="0.3" d="M208 230.386H38V236.386H208V230.386Z" fill="#19D1B5"/>
<path opacity="0.3" d="M208 258.386H38V264.386H208V258.386Z" fill="#19D1B5"/>
<path opacity="0.3" d="M208 286.386H38V292.386H208V286.386Z" fill="#19D1B5"/>
<path opacity="0.3" d="M208 314.386H38V320.386H208V314.386Z" fill="#19D1B5"/>
<path d="M300.5 95H54.5V421H300.5V95Z" fill="#3F3D56"/>
<path d="M262.5 157H92.5V163H262.5V157Z" fill="#14BBE4"/>
<path d="M262.5 265H92.5V271H262.5V265Z" fill="#14BBE4"/>
<path d="M262.5 213H92.5V219H262.5V213Z" fill="#14BBE4"/>
<path d="M262.5 241H92.5V247H262.5V241Z" fill="#14BBE4"/>
<path d="M262.5 297H92.5V303H262.5V297Z" fill="#14BBE4"/>
<path d="M262.5 325H92.5V331H262.5V325Z" fill="#14BBE4"/>
<path d="M262.5 353H92.5V359H262.5V353Z" fill="#14BBE4"/>
<path d="M556.853 183.841L559.451 167.797L562.132 184.004L569.947 184.247C564.597 164.825 564.304 145.92 569.418 127.661C573.148 114.344 569.756 99.6043 560.114 91.237C555.371 87.026 549.311 84.5957 542.973 84.3629L521.094 83.6847C508.19 83.2847 496.896 92.3097 492.235 105.327C490.477 110.493 489.83 115.972 490.335 121.406C491.981 141.527 491.192 161.774 487.986 181.706L556.853 183.841Z" fill="#2F2E41"/>
<path d="M512.062 137.222C512.062 137.222 525.54 171.478 487.354 175.97C449.167 180.463 520.486 219.211 520.486 219.211L569.342 193.379C569.342 193.379 530.032 165.301 542.387 140.03L512.062 137.222Z" fill="#9F616A"/>
<path opacity="0.1" d="M512.062 137.222C512.062 137.222 525.54 171.478 487.354 175.97C449.167 180.463 520.486 219.211 520.486 219.211L569.342 193.379C569.342 193.379 530.032 165.301 542.387 140.03L512.062 137.222Z" fill="black"/>
<path d="M424.458 616.799L413.227 649.931H441.867L446.921 624.099L424.458 616.799Z" fill="#9F616A"/>
<path d="M532.279 616.799V641.508H549.687L551.933 611.183L532.279 616.799Z" fill="#9F616A"/>
<path d="M426.143 638.138C426.143 638.138 411.542 628.03 410.419 633.084C409.296 638.138 398.626 667.34 381.779 669.586C364.932 671.832 347.524 681.379 367.179 684.748C386.833 688.118 416.596 683.625 421.089 680.256C425.581 676.886 426.143 681.379 426.143 681.379C426.143 681.379 449.167 679.694 449.167 678.571C449.167 677.448 448.044 669.586 449.167 667.34C450.29 665.093 446.921 653.301 446.921 653.301L449.167 633.084C449.167 633.084 439.059 634.769 439.059 635.892C439.059 637.015 426.143 638.138 426.143 638.138Z" fill="#2F2E41"/>
<path d="M538.456 631.399C538.456 631.399 528.348 628.03 528.348 631.399C528.348 634.769 519.363 682.198 523.294 684.444C527.225 686.69 550.81 689.241 554.18 681.94C557.549 674.64 551.933 658.916 551.933 658.916C551.933 658.916 548.564 645.439 551.933 643.754C555.303 642.069 556.988 629.153 538.456 631.399Z" fill="#2F2E41"/>
<path d="M469.383 336.578L441.867 514.594C441.867 514.594 403.68 619.607 421.65 624.099C439.62 628.592 439.621 636.454 450.29 630.276C460.96 624.099 478.93 521.894 478.93 521.894L519.363 405.65L531.156 524.702C531.156 524.702 519.363 624.099 528.909 624.099C538.456 624.099 561.48 627.468 563.726 622.414C565.973 617.36 574.396 505.047 574.396 505.047C574.396 505.047 596.704 351.88 570.669 340.017C544.633 328.154 469.383 336.578 469.383 336.578Z" fill="#2F2E41"/>
<path d="M530.032 155.754C547.09 155.754 560.919 141.926 560.919 124.868C560.919 107.81 547.09 93.9818 530.032 93.9818C512.975 93.9818 499.146 107.81 499.146 124.868C499.146 141.926 512.975 155.754 530.032 155.754Z" fill="#9F616A"/>
<path d="M493.299 184.921C494.827 185.686 496.272 186.605 497.612 187.664C502.461 191.634 514.32 199.57 530.032 197.871C550.81 195.625 563.642 188.811 563.642 188.811C563.642 188.811 586.751 195.063 589.558 204.048C592.366 213.034 569.342 259.643 569.342 259.643C569.342 259.643 560.919 277.614 567.096 289.406C573.273 301.199 579.45 332.085 582.82 338.263C586.189 344.44 589.558 365.218 580.012 357.356C570.465 349.494 550.81 330.401 519.924 338.263C489.038 346.124 455.344 349.494 457.591 346.686C459.837 343.878 466.014 266.382 466.014 266.382L453.66 191.694C453.66 191.694 466.535 169.274 492.388 175.149C492.388 175.149 488.798 182.568 493.299 184.921Z" fill="#14BBE4"/>
<path d="M448.044 336.016L466.576 362.41C466.576 362.41 481.738 361.287 481.176 354.548C481.176 354.548 489.038 360.725 491.284 357.356C493.531 353.986 481.738 340.509 477.807 338.824C473.876 337.139 466.014 335.455 464.329 333.77C462.645 332.085 457.029 325.908 457.029 325.908L448.044 336.016Z" fill="#9F616A"/>
<path d="M563.165 323.662C563.165 323.662 546.965 329.849 541.307 336.864C535.648 343.878 527.786 350.055 531.717 350.055C535.648 350.055 544.633 346.124 544.633 346.124C544.633 346.124 554.18 364.656 567.096 353.425L576.081 339.947C576.081 339.947 573.834 321.416 563.165 323.662Z" fill="#9F616A"/>
<path d="M461.521 190.571H453.66C453.66 190.571 425.581 254.028 432.882 286.037C440.182 318.046 446.359 338.824 449.167 339.947C451.975 341.07 454.783 328.256 461.521 330.171C461.521 330.171 455.906 293.337 458.714 291.091C461.522 288.845 460.96 284.352 461.521 278.737C462.083 273.121 469.383 256.274 469.383 256.274L461.521 190.571Z" fill="#14BBE4"/>
<path d="M576.642 202.364L589.558 204.048C589.558 204.048 596.297 223.703 596.859 238.304C597.42 252.905 598.543 258.52 600.228 263.574C601.913 268.628 595.174 287.16 596.297 294.46C597.42 301.761 573.273 347.248 573.273 345.001C573.273 342.755 565.973 323.1 560.918 325.347C560.918 325.347 564.849 314.115 569.342 311.307C573.834 308.5 569.342 286.599 569.342 286.599L565.411 250.658L576.642 202.364Z" fill="#14BBE4"/>
<path d="M560.5 92H503.5V118H560.5V92Z" fill="#2F2E41"/>
<path d="M500.724 134.848C501.795 134.577 502.115 132.188 501.439 129.51C500.763 126.833 499.347 124.882 498.276 125.152C497.205 125.423 496.885 127.812 497.561 130.49C498.237 133.167 499.653 135.118 500.724 134.848Z" fill="#9F616A"/>
<path d="M597.5 48C606.889 48 614.5 40.3888 614.5 31C614.5 21.6112 606.889 14 597.5 14C588.111 14 580.5 21.6112 580.5 31C580.5 40.3888 588.111 48 597.5 48Z" stroke="#3F3D56" stroke-width="2" stroke-miterlimit="10"/>
</g>
<defs>
<clipPath id="clip0">
<rect width="637.5" height="686.772" fill="white"/>
</clipPath>
</defs>
</svg>
